<?xml version="1.0" encoding="utf-8"?>
<!-- Generator: Adobe Illustrator 29.5.0, SVG Export Plug-In . SVG Version: 9.03 Build 0)  -->
<svg version="1.2" baseProfile="tiny" id="Layer_1" xmlns="http://www.w3.org/2000/svg" xmlns:xlink="http://www.w3.org/1999/xlink"
	 x="0px" y="0px" viewBox="0 -30 100 100" overflow="visible" xml:space="preserve">
<g>
	
		<rect x="32.33" y="17.95" transform="matrix(0.711 0.7032 -0.7032 0.711 39.3878 -24.8174)" fill="#FAC915" width="35.12" height="35.12"/>
	
		<rect x="57.3" y="42.65" transform="matrix(0.711 0.7032 -0.7032 0.711 63.9692 -35.2409)" fill="#8DC23F" width="35.12" height="35.12"/>
	
		<rect x="7.63" y="42.93" transform="matrix(0.711 0.7032 -0.7032 0.711 49.8112 -0.2359)" fill="#EA202A" width="35.12" height="35.12"/>
	
		<rect x="40.26" y="36.95" transform="matrix(0.711 0.7032 -0.7032 0.711 47.2315 -21.645)" fill="#F47F20" width="19.38" height="19.38"/>
	
		<rect x="54.04" y="50.58" transform="matrix(0.711 0.7032 -0.7032 0.711 60.7968 -27.3971)" fill="#118241" width="19.38" height="19.38"/>
	
		<rect x="26.63" y="50.73" transform="matrix(0.711 0.7032 -0.7032 0.711 52.9837 -8.0797)" fill="#9D1D28" width="19.38" height="19.38"/>
</g>
</svg>
